<?xml version="1.0" encoding="UTF-8" standalone="no"?>
<!-- Created with Inkscape (http://www.inkscape.org/) -->

<svg
   width="58.617523mm"
   height="12.262558mm"
   viewBox="0 0 58.617523 12.262558"
   version="1.1"
   id="svg5"
   inkscape:export-filename="website_logo.svg"
   inkscape:export-xdpi="96"
   inkscape:export-ydpi="96"
   sodipodi:docname="website_logo.svg"
   inkscape:version="1.2.2 (b0a8486541, 2022-12-01)"
   xmlns:inkscape="http://www.inkscape.org/namespaces/inkscape"
   xmlns:sodipodi="http://sodipodi.sourceforge.net/DTD/sodipodi-0.dtd"
   xmlns="http://www.w3.org/2000/svg"
   xmlns:svg="http://www.w3.org/2000/svg">
  <sodipodi:namedview
     id="namedview7"
     pagecolor="#ffffff"
     bordercolor="#999999"
     borderopacity="1"
     inkscape:showpageshadow="true"
     inkscape:pageopacity="0"
     inkscape:pagecheckerboard="true"
     inkscape:deskcolor="#d1d1d1"
     inkscape:document-units="mm"
     showgrid="false"
     inkscape:zoom="8.8154339"
     inkscape:cx="49.118399"
     inkscape:cy="16.958893"
     inkscape:window-width="1920"
     inkscape:window-height="1012"
     inkscape:window-x="0"
     inkscape:window-y="40"
     inkscape:window-maximized="1"
     inkscape:current-layer="text236"
     showborder="true"
     showguides="true">
    <sodipodi:guide
       position="10.356753,7.169073"
       orientation="1,0"
       id="guide396"
       inkscape:locked="false" />
    <sodipodi:guide
       position="9.1938661,5.5656387"
       orientation="1,0"
       id="guide398"
       inkscape:locked="false" />
    <sodipodi:guide
       position="11.67257,5.1953475"
       orientation="1,0"
       id="guide400"
       inkscape:locked="false" />
  </sodipodi:namedview>
  <defs
     id="defs2" />
  <g
     inkscape:label="Layer 1"
     inkscape:groupmode="layer"
     id="layer1"
     transform="translate(-42.612,-97.300382)">
    <g
       aria-label="{t.saved}"
       id="text236"
       style="font-weight:600;font-size:14.1111px;line-height:0.3;font-family:'URW Gothic';-inkscape-font-specification:'URW Gothic Semi-Bold';stroke-width:0.264583"
       inkscape:label="t.text">
      <path
         d="m 45.236665,99.868613 c 0.01411,-1.241777 0.08467,-1.312332 1.114777,-1.425221 v -1.128888 c -0.211667,-0.01411 -0.465667,-0.01411 -0.578555,-0.01411 -1.425221,0 -2.017888,0.578555 -2.017888,1.961443 v 2.215443 c 0.01411,0.83255 -0.324555,1.24178 -1.142999,1.38289 v 1.12888 c 0.818444,0.15523 1.15711,0.56445 1.142999,1.397 v 2.20134 c 0,1.39699 0.592667,1.97555 2.017888,1.97555 l 0.578555,-0.0141 v -1.12889 c -1.030111,-0.11289 -1.100666,-0.19756 -1.114777,-1.43933 v -1.73567 c -0.01411,-1.11477 -0.366889,-1.62277 -1.269999,-1.82033 0.90311,-0.19755 1.255888,-0.69144 1.269999,-1.80622 z"
         id="path886"
         style="fill:#ff2a2a;fill-opacity:1" />
      <path
         d="m 45.236665,99.868613 c 0.01411,-1.241777 0.08467,-1.312332 1.114777,-1.425221 v -1.128888 c -0.211667,-0.01411 -0.465667,-0.01411 -0.578555,-0.01411 -1.425221,0 -2.017888,0.578555 -2.017888,1.961443 v 2.215443 c 0.01411,0.83255 -0.324555,1.24178 -1.142999,1.38289 v 1.12888 c 0.818444,0.15523 1.15711,0.56445 1.142999,1.397 v 2.20134 c 0,1.39699 0.592667,1.97555 2.017888,1.97555 l 0.578555,-0.0141 v -1.12889 c -1.030111,-0.11289 -1.100666,-0.19756 -1.114777,-1.43933 v -1.73567 c -0.01411,-1.11477 -0.366889,-1.62277 -1.269999,-1.82033 0.90311,-0.19755 1.255888,-0.69144 1.269999,-1.80622 z"
         id="path888"
         style="fill:#ff2a2a;fill-opacity:1" />
      <path
         d="m 45.236665,99.868613 c 0.01411,-1.241777 0.08467,-1.312332 1.114777,-1.425221 v -1.128888 c -0.211667,-0.01411 -0.465667,-0.01411 -0.578555,-0.01411 -1.425221,0 -2.017888,0.578555 -2.017888,1.961443 v 2.215443 c 0.01411,0.83255 -0.324555,1.24178 -1.142999,1.38289 v 1.12888 c 0.818444,0.15523 1.15711,0.56445 1.142999,1.397 v 2.20134 c 0,1.39699 0.592667,1.97555 2.017888,1.97555 l 0.578555,-0.0141 v -1.12889 c -1.030111,-0.11289 -1.100666,-0.19756 -1.114777,-1.43933 v -1.73567 c -0.01411,-1.11477 -0.366889,-1.62277 -1.269999,-1.82033 0.90311,-0.19755 1.255888,-0.69144 1.269999,-1.80622 z"
         id="path890"
         style="fill:#ff2a2a;fill-opacity:1" />
      <path
         d="m 45.236665,99.868613 c 0.01411,-1.241777 0.08467,-1.312332 1.114777,-1.425221 v -1.128888 c -0.211667,-0.01411 -0.465667,-0.01411 -0.578555,-0.01411 -1.425221,0 -2.017888,0.578555 -2.017888,1.961443 v 2.215443 c 0.01411,0.83255 -0.324555,1.24178 -1.142999,1.38289 v 1.12888 c 0.818444,0.15523 1.15711,0.56445 1.142999,1.397 v 2.20134 c 0,1.39699 0.592667,1.97555 2.017888,1.97555 l 0.578555,-0.0141 v -1.12889 c -1.030111,-0.11289 -1.100666,-0.19756 -1.114777,-1.43933 v -1.73567 c -0.01411,-1.11477 -0.366889,-1.62277 -1.269999,-1.82033 0.90311,-0.19755 1.255888,-0.69144 1.269999,-1.80622 z"
         id="path892"
         style="fill:#ff2a2a;fill-opacity:1" />
      <path
         d="m 45.236665,99.868613 c 0.01411,-1.241777 0.08467,-1.312332 1.114777,-1.425221 v -1.128888 c -0.211667,-0.01411 -0.465667,-0.01411 -0.578555,-0.01411 -1.425221,0 -2.017888,0.578555 -2.017888,1.961443 v 2.215443 c 0.01411,0.83255 -0.324555,1.24178 -1.142999,1.38289 v 1.12888 c 0.818444,0.15523 1.15711,0.56445 1.142999,1.397 v 2.20134 c 0,1.39699 0.592667,1.97555 2.017888,1.97555 l 0.578555,-0.0141 v -1.12889 c -1.030111,-0.11289 -1.100666,-0.19756 -1.114777,-1.43933 v -1.73567 c -0.01411,-1.11477 -0.366889,-1.62277 -1.269999,-1.82033 0.90311,-0.19755 1.255888,-0.69144 1.269999,-1.80622 z"
         id="path894"
         style="fill:#ff2a2a;fill-opacity:1" />
      <path
         d="m 45.236665,99.868613 c 0.01411,-1.241777 0.08467,-1.312332 1.114777,-1.425221 v -1.128888 c -0.211667,-0.01411 -0.465667,-0.01411 -0.578555,-0.01411 -1.425221,0 -2.017888,0.578555 -2.017888,1.961443 v 2.215443 c 0.01411,0.83255 -0.324555,1.24178 -1.142999,1.38289 v 1.12888 c 0.818444,0.15523 1.15711,0.56445 1.142999,1.397 v 2.20134 c 0,1.39699 0.592667,1.97555 2.017888,1.97555 l 0.578555,-0.0141 v -1.12889 c -1.030111,-0.11289 -1.100666,-0.19756 -1.114777,-1.43933 v -1.73567 c -0.01411,-1.11477 -0.366889,-1.62277 -1.269999,-1.82033 0.90311,-0.19755 1.255888,-0.69144 1.269999,-1.80622 z"
         id="path467"
         style="fill:#e6e6e6;fill-opacity:1" />
      <path
         d="m 47.931887,107.74261 h 0.898905 0.977871 v -6.11011 h 1.128889 v -1.707442 h -1.128889 v -2.610554 h -1.876776 v 2.610554 h -0.917221 v 1.707442 h 0.917221 z"
         style="fill:#aa4400"
         id="path896"
         sodipodi:nodetypes="cccccccccccccc" />
      <path
         d="m 47.931887,107.74261 h 0.898905 0.977871 v -6.11011 h 1.128889 v -1.707442 h -1.128889 v -2.610554 h -1.876776 v 2.610554 h -0.917221 v 1.707442 h 0.917221 z"
         style="fill:#aa4400"
         id="path469"
         sodipodi:nodetypes="cccccccccccccc" />
      <path
         d="m 52.136984,107.74261 c 0.442361,0.44236 1.434416,0.44236 1.876777,0 0.42573,-0.42573 0.492311,-1.28684 0,-1.80622 -0.430371,-0.45403 -1.434416,-0.44236 -1.876777,0 -0.42573,0.42573 -0.42573,1.38049 0,1.80622 z"
         id="path471"
         inkscape:label="dot"
         sodipodi:nodetypes="aasaa"
         style="fill:#ffffff" />
      <path
         d="m 52.113142,103.11378 c 0.442361,0.44236 1.434416,0.44236 1.876777,0 0.42573,-0.42573 0.492311,-1.28684 0,-1.80622 -0.430371,-0.45403 -1.434416,-0.44236 -1.876777,0 -0.42573,0.42573 -0.42573,1.38049 0,1.80622 z"
         id="path393"
         inkscape:label="dot"
         sodipodi:nodetypes="aasaa"
         style="font-weight:600;font-size:14.1111px;line-height:0.3;font-family:'URW Gothic';-inkscape-font-specification:'URW Gothic Semi-Bold';fill:#ffffff;stroke-width:0.264583" />
      <path
         d="m 55.340213,105.25905 c 0.08467,0.762 0.211667,1.17122 0.522111,1.58045 0.508,0.67733 1.396999,1.08655 2.342443,1.08655 1.566332,0 2.793998,-1.17122 2.793998,-2.667 0,-1.18533 -0.592667,-1.80622 -2.17311,-2.28599 -0.77611,-0.23989 -0.77611,-0.23989 -0.959555,-0.32456 -0.225777,-0.11289 -0.366888,-0.29633 -0.366888,-0.53622 0,-0.36689 0.310444,-0.64911 0.719666,-0.64911 0.395111,0 0.64911,0.21166 0.733777,0.62089 h 1.834443 c -0.02822,-0.66323 -0.183444,-1.05834 -0.564444,-1.48167 -0.493888,-0.55033 -1.227666,-0.860777 -2.003776,-0.860777 -1.467555,0 -2.596443,1.044217 -2.596443,2.384777 0,1.143 0.606778,1.79211 2.17311,2.31422 0.705555,0.23989 0.77611,0.26811 0.973666,0.39511 0.225777,0.14111 0.352777,0.35278 0.352777,0.60678 0,0.43744 -0.352777,0.762 -0.846666,0.762 -0.550333,0 -0.860777,-0.28222 -1.044221,-0.94545 z"
         id="path473"
         style="fill:#ffffff" />
      <path
         d="m 69.809253,99.955072 h -1.721554 v 1.044218 c -0.649111,-0.86078 -1.425221,-1.227663 -2.554109,-1.227663 -2.314221,0 -3.979331,1.735663 -3.979331,4.120433 0,2.35656 1.650999,4.064 3.936997,4.064 1.100666,0 1.848555,-0.33866 2.596443,-1.19944 v 1.016 h 1.721554 z m -4.078108,1.538108 c 1.340555,0 2.300109,1.00189 2.300109,2.42711 0,0.56444 -0.225777,1.21355 -0.564444,1.60866 -0.380999,0.46567 -0.987777,0.70556 -1.707443,0.70556 -1.368776,0 -2.31422,-0.93134 -2.31422,-2.30011 0,-1.42522 0.945444,-2.44122 2.285998,-2.44122 z"
         id="path1062"
         inkscape:label="path475"
         style="fill:#ffffff" />
      <path
         d="m 69.809253,99.955072 h -1.721554 v 1.044218 c -0.649111,-0.86078 -1.425221,-1.227663 -2.554109,-1.227663 -2.314221,0 -3.979331,1.735663 -3.979331,4.120433 0,2.35656 1.650999,4.064 3.936997,4.064 1.100666,0 1.848555,-0.33866 2.596443,-1.19944 v 1.016 h 1.721554 z m -4.078108,1.538108 c 1.340555,0 2.300109,1.00189 2.300109,2.42711 0,0.56444 -0.225777,1.21355 -0.564444,1.60866 -0.380999,0.46567 -0.987777,0.70556 -1.707443,0.70556 -1.368776,0 -2.31422,-0.93134 -2.31422,-2.30011 0,-1.42522 0.945444,-2.44122 2.285998,-2.44122 z"
         id="path1064"
         inkscape:label="path475"
         style="fill:#ffffff" />
      <path
         d="m 69.781267,99.983057 h -1.721554 v 1.044223 c -0.649111,-0.86078 -1.425221,-1.227668 -2.554109,-1.227668 -2.314221,0 -3.979331,1.735668 -3.979331,4.120438 0,2.35656 1.650999,4.064 3.936997,4.064 1.100666,0 1.848555,-0.33866 2.596443,-1.19944 v 1.016 h 1.721554 z m -4.078108,1.538113 c 1.340555,0 2.300109,1.00189 2.300109,2.42711 0,0.56444 -0.225777,1.21355 -0.564444,1.60866 -0.380999,0.46567 -0.987777,0.70556 -1.707443,0.70556 -1.368776,0 -2.31422,-0.93134 -2.31422,-2.30011 0,-1.42522 0.945444,-2.44122 2.285998,-2.44122 z"
         id="path1066"
         inkscape:label="path475"
         style="fill:#ffffff" />
      <path
         d="M 69.764894,99.999433 H 68.04334 v 1.044217 c -0.649111,-0.86078 -1.425221,-1.227662 -2.554109,-1.227662 -2.314221,0 -3.979331,1.735662 -3.979331,4.120432 0,2.35656 1.650999,4.064 3.936997,4.064 1.100666,0 1.848555,-0.33866 2.596443,-1.19944 v 1.016 h 1.721554 z m -4.078108,1.538107 c 1.340555,0 2.300109,1.00189 2.300109,2.42711 0,0.56444 -0.225777,1.21355 -0.564444,1.60866 -0.380999,0.46567 -0.987777,0.70556 -1.707443,0.70556 -1.368776,0 -2.31422,-0.93134 -2.31422,-2.30011 0,-1.42522 0.945444,-2.44122 2.285998,-2.44122 z"
         id="path1068"
         inkscape:label="path475"
         style="fill:#ffffff" />
      <path
         d="M 69.746694,99.999433 H 68.02514 v 1.044217 c -0.649111,-0.86078 -1.425221,-1.227662 -2.554109,-1.227662 -2.314221,0 -3.979331,1.735662 -3.979331,4.120432 0,2.35656 1.650999,4.064 3.936997,4.064 1.100666,0 1.848555,-0.33866 2.596443,-1.19944 v 1.016 h 1.721554 z m -4.078108,1.538107 c 1.340555,0 2.300109,1.00189 2.300109,2.42711 0,0.56444 -0.225777,1.21355 -0.564444,1.60866 -0.380999,0.46567 -0.987777,0.70556 -1.707443,0.70556 -1.368776,0 -2.31422,-0.93134 -2.31422,-2.30011 0,-1.42522 0.945444,-2.44122 2.285998,-2.44122 z"
         id="path1070"
         inkscape:label="path475"
         style="fill:#ffffff" />
      <path
         d="M 69.726754,99.999433 H 68.0052 v 1.044217 c -0.649111,-0.86078 -1.425221,-1.227662 -2.554109,-1.227662 -2.314221,0 -3.979331,1.735662 -3.979331,4.120432 0,2.35656 1.650999,4.064 3.936997,4.064 1.100666,0 1.848555,-0.33866 2.596443,-1.19944 v 1.016 h 1.721554 z m -4.078108,1.538107 c 1.340555,0 2.300109,1.00189 2.300109,2.42711 0,0.56444 -0.225777,1.21355 -0.564444,1.60866 -0.380999,0.46567 -0.987777,0.70556 -1.707443,0.70556 -1.368776,0 -2.31422,-0.93134 -2.31422,-2.30011 0,-1.42522 0.945444,-2.44122 2.285998,-2.44122 z"
         id="path1072"
         inkscape:label="path475"
         style="fill:#ffffff" />
      <path
         d="m 69.683246,100.02197 h -1.721554 v 1.04422 c -0.649111,-0.86078 -1.425221,-1.227668 -2.554109,-1.227668 -2.314221,0 -3.979331,1.735668 -3.979331,4.120438 0,2.35656 1.650999,4.064 3.936997,4.064 1.100666,0 1.848555,-0.33866 2.596443,-1.19944 v 1.016 h 1.721554 z m -4.078108,1.53811 c 1.340555,0 2.300109,1.00189 2.300109,2.42711 0,0.56444 -0.225777,1.21355 -0.564444,1.60866 -0.380999,0.46567 -0.987777,0.70556 -1.707443,0.70556 -1.368776,0 -2.31422,-0.93134 -2.31422,-2.30011 0,-1.42522 0.945444,-2.44122 2.285998,-2.44122 z"
         id="path1074"
         inkscape:label="path475"
         style="fill:#ffffff" />
      <path
         d="m 69.637522,100.03941 h -1.721554 v 1.04422 c -0.649111,-0.86078 -1.425221,-1.227669 -2.554109,-1.227669 -2.314221,0 -3.979331,1.735669 -3.979331,4.120439 0,2.35656 1.650999,4.064 3.936997,4.064 1.100666,0 1.848555,-0.33866 2.596443,-1.19944 v 1.016 h 1.721554 z m -4.078108,1.53811 c 1.340555,0 2.300109,1.00189 2.300109,2.42711 0,0.56444 -0.225777,1.21355 -0.564444,1.60866 -0.380999,0.46567 -0.987777,0.70556 -1.707443,0.70556 -1.368776,0 -2.31422,-0.93134 -2.31422,-2.30011 0,-1.42522 0.945444,-2.44122 2.285998,-2.44122 z"
         id="path1076"
         inkscape:label="path475"
         style="fill:#ffffff" />
      <path
         d="m 69.608929,100.03941 h -1.721554 v 1.04422 c -0.649111,-0.86078 -1.425221,-1.227669 -2.554109,-1.227669 -2.314221,0 -3.979331,1.735669 -3.979331,4.120439 0,2.35656 1.650999,4.064 3.936997,4.064 1.100666,0 1.848555,-0.33866 2.596443,-1.19944 v 1.016 h 1.721554 z m -4.078108,1.53811 c 1.340555,0 2.300109,1.00189 2.300109,2.42711 0,0.56444 -0.225777,1.21355 -0.564444,1.60866 -0.380999,0.46567 -0.987777,0.70556 -1.707443,0.70556 -1.368776,0 -2.31422,-0.93134 -2.31422,-2.30011 0,-1.42522 0.945444,-2.44122 2.285998,-2.44122 z"
         id="path1078"
         inkscape:label="path475"
         style="fill:#ffffff" />
      <path
         d="m 69.560906,100.06748 h -1.721554 v 1.04423 c -0.649111,-0.86078 -1.425221,-1.227671 -2.554109,-1.227671 -2.314221,0 -3.979331,1.735671 -3.979331,4.120441 0,2.35656 1.650999,4.064 3.936997,4.064 1.100666,0 1.848555,-0.33866 2.596443,-1.19944 v 1.016 h 1.721554 z m -4.078108,1.53812 c 1.340555,0 2.300109,1.00189 2.300109,2.42711 0,0.56444 -0.225777,1.21355 -0.564444,1.60866 -0.380999,0.46567 -0.987777,0.70556 -1.707443,0.70556 -1.368776,0 -2.31422,-0.93134 -2.31422,-2.30011 0,-1.42522 0.945444,-2.44122 2.285998,-2.44122 z"
         id="path1080"
         inkscape:label="path475"
         style="fill:#ffffff" />
      <path
         d="m 69.560906,100.06748 h -1.721554 v 1.04423 c -0.649111,-0.86078 -1.425221,-1.227671 -2.554109,-1.227671 -2.314221,0 -3.979331,1.735671 -3.979331,4.120441 0,2.35656 1.650999,4.064 3.936997,4.064 1.100666,0 1.848555,-0.33866 2.596443,-1.19944 v 1.016 h 1.721554 z m -4.078108,1.53812 c 1.340555,0 2.300109,1.00189 2.300109,2.42711 0,0.56444 -0.225777,1.21355 -0.564444,1.60866 -0.380999,0.46567 -0.987777,0.70556 -1.707443,0.70556 -1.368776,0 -2.31422,-0.93134 -2.31422,-2.30011 0,-1.42522 0.945444,-2.44122 2.285998,-2.44122 z"
         id="path1082"
         inkscape:label="path475"
         style="fill:#ffffff" />
      <path
         d="m 69.959321,99.925058 h -1.721554 v 1.044222 c -0.649111,-0.86078 -1.425221,-1.227667 -2.554109,-1.227667 -2.314221,0 -3.979331,1.735667 -3.979331,4.120437 0,2.35656 1.650999,4.064 3.936997,4.064 1.100666,0 1.848555,-0.33866 2.596443,-1.19944 v 1.016 h 1.721554 z m -4.078108,1.538112 c 1.340555,0 2.300109,1.00189 2.300109,2.42711 0,0.56444 -0.225777,1.21355 -0.564444,1.60866 -0.380999,0.46567 -0.987777,0.70556 -1.707443,0.70556 -1.368776,0 -2.31422,-0.93134 -2.31422,-2.30011 0,-1.42522 0.945444,-2.44122 2.285998,-2.44122 z"
         id="path475"
         inkscape:label="path475"
         style="fill:#ffffff" />
      <path
         d="m 73.755205,107.74261 h 1.495776 l 3.146776,-7.817552 h -2.116665 l -1.777999,5.178772 -1.806221,-5.178772 h -2.088443 z"
         id="path477"
         style="fill:#ffffff" />
      <path
         d="m 86.596308,104.66639 c 0.05644,-0.28222 0.07056,-0.45156 0.07056,-0.73378 0,-2.413 -1.707444,-4.190997 -4.035775,-4.190997 -2.300109,0 -4.120441,1.820337 -4.120441,4.120437 0,2.286 1.848554,4.064 4.23333,4.064 1.28411,0 2.285998,-0.46566 3.104442,-1.41111 0.296333,-0.36689 0.493888,-0.69144 0.620888,-1.08655 h -2.046109 c -0.479778,0.56444 -0.945444,0.77611 -1.721555,0.77611 -1.114777,0 -1.93322,-0.59267 -2.158998,-1.53811 z m -6.110106,-1.651 c 0.296333,-1.016 1.058332,-1.55222 2.173109,-1.55222 1.15711,0 1.91911,0.55033 2.158998,1.55222 z"
         id="path479"
         style="fill:#ffffff" />
      <path
         d="m 95.768513,97.314504 h -1.876777 v 3.301996 c -0.550333,-0.60678 -1.453443,-0.973664 -2.427109,-0.973664 -2.201332,0 -3.922886,1.834444 -3.922886,4.176884 0,2.32833 1.693332,4.10633 3.922886,4.10633 1.058333,0 1.820332,-0.35278 2.582331,-1.19944 v 1.016 h 1.721555 z m -4.049886,4.049886 c 1.312332,0 2.31422,1.04422 2.31422,2.42711 0,1.35466 -1.001888,2.413 -2.271887,2.413 -1.312332,0 -2.328331,-1.07245 -2.328331,-2.46945 0,-1.34055 1.001888,-2.37066 2.285998,-2.37066 z"
         id="path481"
         style="fill:#ffffff" />
      <path
         d="m 98.604852,106.98061 c -0.01411,1.24177 -0.08467,1.32644 -1.114777,1.43933 v 1.12889 l 0.578556,0.0141 c 1.425221,0 2.017889,-0.57856 2.017889,-1.97555 v -2.20134 c -0.0141,-0.83255 0.32455,-1.24177 1.143,-1.397 v -1.12888 c -0.81845,-0.14111 -1.15711,-0.55034 -1.143,-1.38289 v -2.215444 c 0,-1.382888 -0.592668,-1.961443 -2.017889,-1.961443 -0.112889,0 -0.366889,0 -0.578556,0.01411 v 1.128888 c 1.030111,0.112889 1.100666,0.183444 1.114777,1.425221 v 1.749778 c 0.01411,1.11478 0.366889,1.62278 1.269999,1.80622 -0.90311,0.21167 -1.255888,0.70556 -1.269999,1.82033 z"
         id="path483"
         style="fill:#e6e6e6" />
    </g>
  </g>
</svg>
